<?xml version="1.0" standalone="no"?>
<!DOCTYPE svg PUBLIC "-//W3C//DTD SVG 20010904//EN"
 "http://www.w3.org/TR/2001/REC-SVG-20010904/DTD/svg10.dtd">
<svg version="1.0" xmlns="http://www.w3.org/2000/svg"
 width="200.000000pt" height="200.000000pt" viewBox="0 0 200.000000 200.000000"
 preserveAspectRatio="xMidYMid meet">
<metadata>
Created by potrace 1.14, written by Peter Selinger 2001-2017
</metadata>
<g transform="translate(0.000000,200.000000) scale(0.100000,-0.100000)"
fill="#000000" stroke="none">
<path d="M700 1853 c-14 -3 -64 -45 -117 -98 -83 -83 -101 -97 -175 -127 -47
-19 -98 -48 -119 -68 -41 -39 -51 -70 -66 -201 -9 -76 -16 -96 -61 -175 -27
-49 -53 -103 -57 -120 -8 -40 12 -96 65 -184 37 -62 44 -83 53 -158 18 -163
38 -202 125 -242 160 -74 167 -79 222 -145 62 -76 121 -115 171 -115 19 0 68
9 109 20 41 11 91 20 110 20 19 0 69 -9 110 -20 41 -11 90 -20 109 -20 50 0
104 36 162 107 62 77 82 92 181 133 136 56 154 81 168 231 10 105 10 105 95
253 39 67 39 125 0 192 -85 148 -85 148 -95 253 -14 152 -33 176 -173 233 -74
30 -91 43 -177 129 -115 116 -122 118 -272 87 l-108 -23 -107 23 c-60 12 -112
21 -118 21 -5 -1 -21 -4 -35 -6z m165 -34 l95 -21 95 21 c162 36 176 31 284
-87 67 -75 78 -83 171 -122 65 -27 109 -53 125 -72 14 -16 25 -33 25 -36 1 -4
7 -58 14 -120 12 -98 18 -119 48 -170 97 -158 99 -184 18 -316 -51 -84 -53
-89 -66 -204 -19 -158 -14 -153 -209 -244 -56 -26 -81 -46 -124 -98 -101 -120
-123 -127 -289 -89 l-92 21 -93 -21 c-165 -38 -194 -29 -290 88 -47 58 -69 76
-125 101 -188 86 -187 84 -207 240 -15 108 -19 121 -67 204 -78 136 -77 154
20 327 25 45 35 78 46 167 8 61 20 120 25 131 18 32 56 57 143 92 74 29 92 42
168 120 47 48 94 92 105 98 30 16 74 13 180 -10z"/>
<path d="M500 1056 c0 -263 1 -277 20 -296 12 -12 33 -20 55 -20 22 0 43 8 55
20 19 19 20 33 20 296 l0 275 -22 -3 -23 -3 -3 -266 c-2 -211 -5 -268 -16
-272 -33 -13 -36 7 -38 273 l-3 265 -22 3 -23 3 0 -275z"/>
<path d="M670 1298 c0 -46 40 -530 45 -545 3 -7 15 -13 29 -13 29 0 30 5 48
230 14 185 16 180 38 -82 l13 -148 28 0 c16 0 29 3 29 8 0 4 11 133 25 287 14
154 25 283 25 288 0 12 -40 8 -45 -5 -3 -7 -11 -98 -19 -202 -15 -187 -26
-250 -26 -144 0 52 -14 226 -26 316 -4 33 -9 42 -25 42 -11 0 -22 -6 -24 -12
-3 -7 -13 -103 -23 -213 l-18 -200 -12 190 c-15 229 -17 235 -42 235 -16 0
-20 -7 -20 -32z"/>
<path d="M970 1035 l0 -295 65 0 c63 0 65 1 65 25 0 23 -4 25 -40 25 l-40 0 0
110 0 110 35 0 c31 0 35 3 35 25 0 22 -4 25 -35 25 l-35 0 0 110 0 110 40 0
c36 0 40 3 40 25 0 24 -2 25 -65 25 l-65 0 0 -295z"/>
<path d="M1120 1034 l0 -295 23 3 c21 3 22 7 27 143 3 77 8 136 11 130 4 -5
14 -59 23 -120 24 -158 23 -155 51 -155 21 0 24 4 19 28 -30 156 -41 259 -29
282 19 38 26 107 19 173 -9 80 -34 107 -99 107 l-45 0 0 -296z m88 147 c3 -89
-5 -121 -29 -121 -5 0 -9 50 -9 111 0 100 2 110 18 107 14 -3 17 -17 20 -97z"/>
<path d="M1294 1317 c-3 -8 -4 -131 -2 -274 3 -240 5 -263 22 -282 26 -29 86
-29 112 0 18 20 19 40 19 293 l0 271 -22 3 -23 3 0 -264 c0 -223 -2 -267 -15
-277 -12 -10 -18 -10 -30 0 -13 10 -15 54 -15 276 0 259 0 264 -20 264 -11 0
-23 -6 -26 -13z"/>
</g>
</svg>
